STARTFONT 2.3
FONT -FontForge-Shadows Into Light-Book-R-Normal--12-120-72-72-P-50-ISO10646-1
SIZE 12 72 72  4
FONTBOUNDINGBOX 17 20 -2 -5
COMMENT "Generated by fontforge, http://fontforge.sourceforge.net"
COMMENT "Copyright (c) 2010, Kimberly Geswein (kimberlygeswein.com)"
STARTPROPERTIES 40
FOUNDRY "FontForge"
FAMILY_NAME "Shadows Into Light"
WEIGHT_NAME "Book"
SLANT "R"
SETWIDTH_NAME "Normal"
ADD_STYLE_NAME ""
PIXEL_SIZE 12
POINT_SIZE 120
RESOLUTION_X 72
RESOLUTION_Y 72
SPACING "P"
AVERAGE_WIDTH 50
CHARSET_REGISTRY "ISO10646"
CHARSET_ENCODING "1"
FONTNAME_REGISTRY ""
CHARSET_COLLECTIONS "ISO8859-2 ISO8859-9 ISO8859-4 ISO10646-1"
BITS_PER_PIXEL 4
FONT_NAME "ShadowsIntoLight"
FACE_NAME "Shadows Into Light"
COPYRIGHT "Copyright (c) 2010, Kimberly Geswein (kimberlygeswein.com)"
FONT_VERSION "001.000"
FONT_ASCENT 10
FONT_DESCENT 2
UNDERLINE_POSITION 0
UNDERLINE_THICKNESS 0
X_HEIGHT 7
CAP_HEIGHT 8
RAW_ASCENT 799
RAW_DESCENT 200
NORM_SPACE 5
RELATIVE_WEIGHT 40
RELATIVE_SETWIDTH 50
SUPERSCRIPT_X 0
SUPERSCRIPT_Y 5
SUPERSCRIPT_SIZE 7
SUBSCRIPT_X 0
SUBSCRIPT_Y 1
SUBSCRIPT_SIZE 7
AVG_LOWERCASE_WIDTH 45
AVG_UPPERCASE_WIDTH 59
ENDPROPERTIES
CHARS 352
STARTCHAR space
ENCODING 32
SWIDTH 450 0
DWIDTH 5 0
BBX 1 1 0 0
BITMAP
00
ENDCHAR
STARTCHAR exclam
ENCODING 33
SWIDTH 137 0
DWIDTH 2 0
BBX 2 11 0 0
BITMAP
10
70
80
90
90
A0
90
00
00
00
04
ENDCHAR
STARTCHAR quotedbl
ENCODING 34
SWIDTH 212 0
DWIDTH 3 0
BBX 3 4 0 6
BITMAP
4100
8520
8620
6310
ENDCHAR
STARTCHAR numbersign
ENCODING 35
SWIDTH 450 0
DWIDTH 5 0
BBX 6 7 0 1
BITMAP
000500
080900
087D30
1B3932
074D40
2B8900
133300
ENDCHAR
STARTCHAR dollar
ENCODING 36
SWIDTH 445 0
DWIDTH 5 0
BBX 5 12 0 -2
BITMAP
002000
009000
00B700
19B000
929000
B6C610
029180
007760
02B700
004600
000800
000200
ENDCHAR
STARTCHAR percent
ENCODING 37
SWIDTH 450 0
DWIDTH 5 0
BBX 6 10 0 0
BITMAP
000300
120A00
963900
975500
428100
008180
0073A2
0243C0
051000
050000
ENDCHAR
STARTCHAR ampersand
ENCODING 38
SWIDTH 356 0
DWIDTH 4 0
BBX 4 6 0 1
BITMAP
0050
0070
36A8
65D0
8890
0060
ENDCHAR
STARTCHAR quotesingle
ENCODING 39
SWIDTH 155 0
DWIDTH 2 0
BBX 2 4 0 4
BITMAP
40
83
63
42
ENDCHAR
STARTCHAR parenleft
ENCODING 40
SWIDTH 291 0
DWIDTH 4 0
BBX 4 10 0 0
BITMAP
0062
0370
0900
3600
8100
9000
9000
9000
4500
0850
ENDCHAR
STARTCHAR parenright
ENCODING 41
SWIDTH 241 0
DWIDTH 3 0
BBX 3 9 0 0
BITMAP
7200
0900
0440
0070
0070
0070
0360
0810
0500
ENDCHAR
STARTCHAR asterisk
ENCODING 42
SWIDTH 481 0
DWIDTH 6 0
BBX 6 7 0 0
BITMAP
005000
008730
59D983
5AFA10
19A280
366100
001000
ENDCHAR
STARTCHAR plus
ENCODING 43
SWIDTH 466 0
DWIDTH 6 0
BBX 6 6 0 1
BITMAP
005000
008000
008573
67D300
10A000
004000
ENDCHAR
STARTCHAR comma
ENCODING 44
SWIDTH 112 0
DWIDTH 1 0
BBX 2 4 0 -2
BITMAP
31
93
81
20
ENDCHAR
STARTCHAR hyphen
ENCODING 45
SWIDTH 399 0
DWIDTH 5 0
BBX 5 2 0 2
BITMAP
016A50
685100
ENDCHAR
STARTCHAR period
ENCODING 46
SWIDTH 128 0
DWIDTH 2 0
BBX 2 1 0 0
BITMAP
71
ENDCHAR
STARTCHAR slash
ENCODING 47
SWIDTH 306 0
DWIDTH 4 0
BBX 4 10 0 -1
BITMAP
0012
0071
0080
0170
0620
0800
1700
5300
8000
7000
ENDCHAR
STARTCHAR zero
ENCODING 48
SWIDTH 308 0
DWIDTH 4 0
BBX 4 7 0 0
BITMAP
0430
2671
6033
8024
7034
4271
0980
ENDCHAR
STARTCHAR one
ENCODING 49
SWIDTH 112 0
DWIDTH 1 0
BBX 1 8 0 0
BITMAP
30
70
80
80
90
90
80
70
ENDCHAR
STARTCHAR two
ENCODING 50
SWIDTH 512 0
DWIDTH 6 0
BBX 6 7 0 0
BITMAP
05B400
570800
200800
004500
009100
028486
078410
ENDCHAR
STARTCHAR three
ENCODING 51
SWIDTH 461 0
DWIDTH 6 0
BBX 6 9 0 0
BITMAP
002200
497A00
502600
01A200
0CA591
020054
000090
002A30
00A200
ENDCHAR
STARTCHAR four
ENCODING 52
SWIDTH 503 0
DWIDTH 6 0
BBX 6 10 0 0
BITMAP
000210
000B40
004E40
00A640
064540
2A29A6
975740
000540
000540
000530
ENDCHAR
STARTCHAR five
ENCODING 53
SWIDTH 478 0
DWIDTH 6 0
BBX 6 9 0 0
BITMAP
000022
997662
970000
721300
859930
760530
000900
007500
018000
ENDCHAR
STARTCHAR six
ENCODING 54
SWIDTH 375 0
DWIDTH 5 0
BBX 5 10 0 0
BITMAP
070000
090000
180000
350000
620000
803920
91A520
971700
884500
2C8000
ENDCHAR
STARTCHAR seven
ENCODING 55
SWIDTH 458 0
DWIDTH 6 0
BBX 6 9 0 0
BITMAP
158AC1
4422A0
000550
000810
000800
000800
000900
000A00
000A00
ENDCHAR
STARTCHAR eight
ENCODING 56
SWIDTH 333 0
DWIDTH 4 0
BBX 4 9 0 0
BITMAP
0140
18E7
8116
9034
6480
0890
0661
0606
0A83
ENDCHAR
STARTCHAR nine
ENCODING 57
SWIDTH 475 0
DWIDTH 6 0
BBX 6 9 0 0
BITMAP
000100
02A990
1A19C0
726880
989080
550071
000062
000063
000053
ENDCHAR
STARTCHAR colon
ENCODING 58
SWIDTH 120 0
DWIDTH 1 0
BBX 1 4 0 1
BITMAP
50
00
00
50
ENDCHAR
STARTCHAR semicolon
ENCODING 59
SWIDTH 121 0
DWIDTH 1 0
BBX 2 6 0 -2
BITMAP
40
00
31
93
81
20
ENDCHAR
STARTCHAR less
ENCODING 60
SWIDTH 409 0
DWIDTH 5 0
BBX 5 7 0 1
BITMAP
000050
001A40
02B300
3A1000
2B5000
007A30
000230
ENDCHAR
STARTCHAR equal
ENCODING 61
SWIDTH 433 0
DWIDTH 5 0
BBX 5 4 0 1
BITMAP
000110
4AA710
003780
685200
ENDCHAR
STARTCHAR greater
ENCODING 62
SWIDTH 450 0
DWIDTH 5 0
BBX 5 7 0 1
BITMAP
481000
04B600
000590
000640
009600
1B5000
320000
ENDCHAR
STARTCHAR question
ENCODING 63
SWIDTH 445 0
DWIDTH 5 0
BBX 6 11 0 0
BITMAP
289890
630081
000180
002A10
01B200
065000
03A700
000000
000000
000000
006000
ENDCHAR
STARTCHAR at
ENCODING 64
SWIDTH 945 0
DWIDTH 11 0
BBX 11 11 0 0
BITMAP
000018993000
000592007400
005602200900
037078900900
090649700800
462736700800
828580788200
A14600000000
8300000002B0
2B1000028700
039998861000
ENDCHAR
STARTCHAR A
ENCODING 65
SWIDTH 390 0
DWIDTH 5 0
BBX 6 9 0 0
BITMAP
0B1000
0D6000
198000
377200
463854
655D42
7A4A00
910530
600160
ENDCHAR
STARTCHAR B
ENCODING 66
SWIDTH 537 0
DWIDTH 6 0
BBX 7 9 0 0
BITMAP
00695000
9A428000
74091000
45997A10
2E910700
0C005400
08058000
09390000
06200000
ENDCHAR
STARTCHAR C
ENCODING 67
SWIDTH 487 0
DWIDTH 6 0
BBX 6 9 0 0
BITMAP
007910
055220
090000
270000
630000
800013
900083
900570
3A9500
ENDCHAR
STARTCHAR D
ENCODING 68
SWIDTH 554 0
DWIDTH 7 0
BBX 7 9 0 0
BITMAP
07430000
6E558800
0A000440
09000530
09000900
08007300
07058000
065A0000
01900000
ENDCHAR
STARTCHAR E
ENCODING 69
SWIDTH 474 0
DWIDTH 6 0
BBX 6 9 0 0
BITMAP
412740
7B9200
550000
450330
388600
2B1000
290193
295810
2B4000
ENDCHAR
STARTCHAR F
ENCODING 70
SWIDTH 428 0
DWIDTH 5 0
BBX 5 9 0 0
BITMAP
000040
917930
AA3000
A20000
930260
848600
8A1000
640000
430000
ENDCHAR
STARTCHAR G
ENCODING 71
SWIDTH 591 0
DWIDTH 7 0
BBX 7 10 0 -2
BITMAP
00079000
00830000
05500000
09017A80
54001C30
90006F00
91069A00
4BB60A00
00000A10
00000200
ENDCHAR
STARTCHAR H
ENCODING 72
SWIDTH 424 0
DWIDTH 5 0
BBX 5 8 0 0
BITMAP
800810
900620
900640
810B50
789470
770180
620090
630080
ENDCHAR
STARTCHAR I
ENCODING 73
SWIDTH 153 0
DWIDTH 2 0
BBX 2 9 0 0
BITMAP
44
45
36
36
27
27
27
17
16
ENDCHAR
STARTCHAR J
ENCODING 74
SWIDTH 371 0
DWIDTH 4 0
BBX 5 10 0 -1
BITMAP
001300
002700
001900
000A00
000A00
000900
000900
300810
620800
067500
ENDCHAR
STARTCHAR K
ENCODING 75
SWIDTH 524 0
DWIDTH 6 0
BBX 7 8 0 0
BITMAP
91004000
63092000
44560000
37900000
2E200000
0E433310
0B555510
07000000
ENDCHAR
STARTCHAR L
ENCODING 76
SWIDTH 537 0
DWIDTH 6 0
BBX 7 8 0 0
BITMAP
51000000
93000000
83000000
84000000
74000000
75001830
75288200
6C920000
ENDCHAR
STARTCHAR M
ENCODING 77
SWIDTH 682 0
DWIDTH 8 0
BBX 8 10 0 0
BITMAP
10000010
9A0000B0
785004B0
53A00780
44640871
460A4452
3706C044
39003036
3A000029
2A00000A
ENDCHAR
STARTCHAR N
ENCODING 78
SWIDTH 541 0
DWIDTH 7 0
BBX 6 9 0 0
BITMAP
000037
620019
8C0009
789009
547509
36092A
18019B
09002D
080005
ENDCHAR
STARTCHAR O
ENCODING 79
SWIDTH 382 0
DWIDTH 5 0
BBX 5 8 0 0
BITMAP
05CA00
0A0640
550460
910460
900640
900A10
913800
3D9000
ENDCHAR
STARTCHAR P
ENCODING 80
SWIDTH 508 0
DWIDTH 6 0
BBX 6 10 0 0
BITMAP
045881
6D414A
480019
1702A2
197910
1D3000
1A0000
0A0000
080000
070000
ENDCHAR
STARTCHAR Q
ENCODING 81
SWIDTH 512 0
DWIDTH 6 0
BBX 6 9 0 0
BITMAP
07B980
1C0043
550016
810007
800507
900656
8100D2
3601D4
079928
ENDCHAR
STARTCHAR R
ENCODING 82
SWIDTH 503 0
DWIDTH 6 0
BBX 6 10 0 0
BITMAP
420210
899798
860055
821840
888100
8A0000
87B500
8006B5
800004
600000
ENDCHAR
STARTCHAR S
ENCODING 83
SWIDTH 541 0
DWIDTH 7 0
BBX 7 9 0 0
BITMAP
00289000
05702000
47000000
90000000
91000000
17777300
00001B20
00159500
04840000
ENDCHAR
STARTCHAR T
ENCODING 84
SWIDTH 595 0
DWIDTH 7 0
BBX 9 9 0 0
BITMAP
0002434610
699BB65200
1002800000
0000800000
0000900000
0000A00000
0000B00000
0000910000
0000720000
ENDCHAR
STARTCHAR U
ENCODING 85
SWIDTH 450 0
DWIDTH 5 0
BBX 6 10 0 -2
BITMAP
100030
9200C0
9200E0
8202E0
8205D0
8209A0
631880
1A9171
000062
000020
ENDCHAR
STARTCHAR V
ENCODING 86
SWIDTH 524 0
DWIDTH 6 0
BBX 6 9 0 0
BITMAP
000006
00000A
A10019
470055
0B1092
0560B0
00B1B0
006A70
001C40
ENDCHAR
STARTCHAR W
ENCODING 87
SWIDTH 878 0
DWIDTH 11 0
BBX 10 10 0 -1
BITMAP
0000000007
300005000A
94001E2019
2800577045
0B0080A081
0930808290
0574501990
01C9100960
00AA000110
0010000000
ENDCHAR
STARTCHAR X
ENCODING 88
SWIDTH 461 0
DWIDTH 6 0
BBX 6 9 0 0
BITMAP
000021
340080
1A0450
074900
01D400
01E400
083A00
470640
400090
ENDCHAR
STARTCHAR Y
ENCODING 89
SWIDTH 483 0
DWIDTH 6 0
BBX 6 10 0 0
BITMAP
000002
000027
500062
660090
0A3280
01BA30
001D00
003800
007300
008000
ENDCHAR
STARTCHAR Z
ENCODING 90
SWIDTH 670 0
DWIDTH 8 0
BBX 8 9 0 0
BITMAP
13332210
35556C80
00003B00
0001B100
000A3000
00860000
04900000
2A000000
9DCCBBB8
ENDCHAR
STARTCHAR bracketleft
ENCODING 91
SWIDTH 470 0
DWIDTH 6 0
BBX 6 16 0 -2
BITMAP
234540
A44300
900000
810000
620000
530000
440000
360000
180000
080000
080000
080000
080000
090011
0BA861
010000
ENDCHAR
STARTCHAR backslash
ENCODING 92
SWIDTH 554 0
DWIDTH 7 0
BBX 7 13 0 0
BITMAP
10000000
91000000
27000000
07100000
02800000
00910000
00370000
000A1000
00047000
0000B100
00005700
00000C00
00000750
ENDCHAR
STARTCHAR bracketright
ENCODING 93
SWIDTH 512 0
DWIDTH 6 0
BBX 6 17 0 -2
BITMAP
000110
9A98C6
000074
000074
000074
000064
000064
000055
000045
000036
000037
000028
000019
00001A
00001B
0027B9
001200
ENDCHAR
STARTCHAR asciicircum
ENCODING 94
SWIDTH 390 0
DWIDTH 5 0
BBX 5 4 0 8
BITMAP
001000
06A100
181900
710350
ENDCHAR
STARTCHAR underscore
ENCODING 95
SWIDTH 612 0
DWIDTH 7 0
BBX 7 3 0 0
BITMAP
00000010
00269CA0
7B962000
ENDCHAR
STARTCHAR grave
ENCODING 96
SWIDTH 155 0
DWIDTH 2 0
BBX 2 2 0 7
BITMAP
70
45
ENDCHAR
STARTCHAR a
ENCODING 97
SWIDTH 366 0
DWIDTH 4 0
BBX 5 7 0 0
BITMAP
005400
06AB00
1B2B00
758B00
A2A900
9A2810
950510
ENDCHAR
STARTCHAR b
ENCODING 98
SWIDTH 442 0
DWIDTH 5 0
BBX 5 10 0 0
BITMAP
650000
650000
640000
730200
74AB90
7B2090
8400B0
800860
82A700
7B3000
ENDCHAR
STARTCHAR c
ENCODING 99
SWIDTH 390 0
DWIDTH 5 0
BBX 5 7 0 0
BITMAP
0AA000
468000
820000
900000
800430
710910
2A8400
ENDCHAR
STARTCHAR d
ENCODING 100
SWIDTH 316 0
DWIDTH 4 0
BBX 4 12 0 -1
BITMAP
0032
0054
0044
0034
0154
2BA4
8344
9065
8095
9195
9825
0015
ENDCHAR
STARTCHAR e
ENCODING 101
SWIDTH 461 0
DWIDTH 6 0
BBX 6 7 0 0
BITMAP
004200
087B20
1A6910
9C4000
A400A2
530760
1A9400
ENDCHAR
STARTCHAR f
ENCODING 102
SWIDTH 345 0
DWIDTH 4 0
BBX 4 11 0 0
BITMAP
0391
0975
0B00
0B00
0A01
0BAA
6C10
0900
0A00
0A10
0810
ENDCHAR
STARTCHAR g
ENCODING 103
SWIDTH 437 0
DWIDTH 5 0
BBX 5 12 0 -5
BITMAP
004820
047A70
191B80
637690
91A2B0
AB31C0
2300C0
0000C0
000290
000550
000A00
07B400
ENDCHAR
STARTCHAR h
ENCODING 104
SWIDTH 466 0
DWIDTH 6 0
BBX 6 9 0 0
BITMAP
700000
900000
910000
913BA1
92D473
978074
9C1064
980064
710055
ENDCHAR
STARTCHAR i
ENCODING 105
SWIDTH 132 0
DWIDTH 2 0
BBX 2 9 0 0
BITMAP
50
00
61
91
91
91
81
81
71
ENDCHAR
STARTCHAR j
ENCODING 106
SWIDTH 112 0
DWIDTH 1 0
BBX 4 14 -2 -4
BITMAP
0040
0000
0000
0010
0090
0090
0090
0091
0082
0063
0064
0064
6081
4890
ENDCHAR
STARTCHAR k
ENCODING 107
SWIDTH 428 0
DWIDTH 5 0
BBX 5 11 0 -1
BITMAP
100000
640000
650000
7402A0
730B40
836900
86C100
9C1000
9A8300
902780
200000
ENDCHAR
STARTCHAR l
ENCODING 108
SWIDTH 137 0
DWIDTH 2 0
BBX 2 11 0 0
BITMAP
10
80
80
70
61
52
53
53
54
64
43
ENDCHAR
STARTCHAR m
ENCODING 109
SWIDTH 579 0
DWIDTH 7 0
BBX 7 8 0 0
BITMAP
20000000
91000000
83B16D00
78C6BB10
6B2B7820
5C0D2720
59060650
46000140
ENDCHAR
STARTCHAR n
ENCODING 110
SWIDTH 483 0
DWIDTH 6 0
BBX 6 7 0 0
BITMAP
702C80
91A380
83A073
795064
6E1055
5C0045
390023
ENDCHAR
STARTCHAR o
ENCODING 111
SWIDTH 266 0
DWIDTH 3 0
BBX 3 7 0 0
BITMAP
1810
6770
8080
9090
A0A0
9190
8A10
ENDCHAR
STARTCHAR p
ENCODING 112
SWIDTH 482 0
DWIDTH 6 0
BBX 6 11 0 -4
BITMAP
200000
A17885
9A2056
9103A0
906A10
8C7000
840000
810000
800000
900000
200000
ENDCHAR
STARTCHAR q
ENCODING 113
SWIDTH 408 0
DWIDTH 5 0
BBX 5 10 0 -4
BITMAP
005600
085900
370C20
812C40
919560
373190
0000A0
0000A0
0000A0
000030
ENDCHAR
STARTCHAR r
ENCODING 114
SWIDTH 396 0
DWIDTH 5 0
BBX 5 7 0 0
BITMAP
000100
80BA30
867000
5A3000
3D1000
1F0000
0B0000
ENDCHAR
STARTCHAR s
ENCODING 115
SWIDTH 366 0
DWIDTH 4 0
BBX 5 7 0 -1
BITMAP
068500
550000
902400
6A8A30
002A00
05B200
020000
ENDCHAR
STARTCHAR t
ENCODING 116
SWIDTH 268 0
DWIDTH 3 0
BBX 5 11 -1 -1
BITMAP
001000
036000
045000
048820
3DA300
175000
046000
036000
037000
028000
001000
ENDCHAR
STARTCHAR u
ENCODING 117
SWIDTH 387 0
DWIDTH 5 0
BBX 5 7 0 -1
BITMAP
700700
900A00
810A00
821D00
638D00
1C9820
010110
ENDCHAR
STARTCHAR v
ENCODING 118
SWIDTH 354 0
DWIDTH 4 0
BBX 4 7 0 0
BITMAP
0004
000B
A20B
3A0B
093B
01CB
005A
ENDCHAR
STARTCHAR w
ENCODING 119
SWIDTH 566 0
DWIDTH 7 0
BBX 7 7 0 0
BITMAP
00010000
815A0630
46794630
0A92A640
08D14C40
02F00A50
00A00120
ENDCHAR
STARTCHAR x
ENCODING 120
SWIDTH 454 0
DWIDTH 5 0
BBX 6 9 0 -1
BITMAP
001200
004800
615600
596300
05E200
00DA00
0383A0
064031
071000
ENDCHAR
STARTCHAR y
ENCODING 121
SWIDTH 363 0
DWIDTH 4 0
BBX 5 12 0 -5
BITMAP
000100
400720
750810
0B1910
039A10
009E00
001D00
000900
000900
000900
000900
000400
ENDCHAR
STARTCHAR z
ENCODING 122
SWIDTH 618 0
DWIDTH 7 0
BBX 8 6 0 0
BITMAP
015AA000
59467000
000B1000
00550000
00A01585
01EBA741
ENDCHAR
STARTCHAR braceleft
ENCODING 123
SWIDTH 348 0
DWIDTH 4 0
BBX 5 12 0 -1
BITMAP
002100
097710
190000
090000
074000
881000
090000
A90000
900000
900000
850000
09B100
ENDCHAR
STARTCHAR bar
ENCODING 124
SWIDTH 137 0
DWIDTH 2 0
BBX 2 11 0 0
BITMAP
10
80
80
70
61
52
53
53
54
64
43
ENDCHAR
STARTCHAR braceright
ENCODING 125
SWIDTH 348 0
DWIDTH 4 0
BBX 4 12 0 -2
BITMAP
7850
00A0
0080
0360
0295
0081
01B5
0019
0008
0037
17C1
1400
ENDCHAR
STARTCHAR asciitilde
ENCODING 126
SWIDTH 458 0
DWIDTH 6 0
BBX 5 3 0 6
BITMAP
175040
7398A0
001400
ENDCHAR
STARTCHAR nonbreakingspace
ENCODING 160
SWIDTH 450 0
DWIDTH 5 0
BBX 1 1 0 0
BITMAP
00
ENDCHAR
STARTCHAR exclamdown
ENCODING 161
SWIDTH 137 0
DWIDTH 2 0
BBX 2 8 0 -2
BITMAP
03
00
00
80
80
80
70
50
ENDCHAR
STARTCHAR cent
ENCODING 162
SWIDTH 394 0
DWIDTH 5 0
BBX 5 10 0 -1
BITMAP
012000
026000
0AD300
467500
826000
906000
806440
716A10
2AC500
007000
ENDCHAR
STARTCHAR sterling
ENCODING 163
SWIDTH 539 0
DWIDTH 6 0
BBX 7 9 0 -1
BITMAP
00089700
00830200
02820000
8C950000
09000000
09000000
09056200
0A964910
01000000
ENDCHAR
STARTCHAR currency
ENCODING 164
SWIDTH 500 0
DWIDTH 6 0
BBX 5 7 0 1
BITMAP
010090
09AAA0
056640
072350
063650
1BBE30
741250
ENDCHAR
STARTCHAR yen
ENCODING 165
SWIDTH 478 0
DWIDTH 6 0
BBX 5 10 0 0
BITMAP
030080
0A24B0
05AA20
00D900
006500
049A90
069710
28B950
006400
005300
ENDCHAR
STARTCHAR brokenbar
ENCODING 166
SWIDTH 137 0
DWIDTH 2 0
BBX 2 11 0 0
BITMAP
10
80
80
71
41
21
43
44
44
55
43
ENDCHAR
STARTCHAR section
ENCODING 167
SWIDTH 366 0
DWIDTH 4 0
BBX 5 10 0 -1
BITMAP
058400
560000
901200
9B9D10
551A00
92B600
6C8A30
002A00
05B200
020000
ENDCHAR
STARTCHAR dieresis
ENCODING 168
SWIDTH 306 0
DWIDTH 4 0
BBX 4 1 0 8
BITMAP
2671
ENDCHAR
STARTCHAR copyright
ENCODING 169
SWIDTH 485 0
DWIDTH 6 0
BBX 6 9 0 0
BITMAP
000100
01BA90
0A4265
38A939
865029
9540B6
91AAD1
910760
3DB500
ENDCHAR
STARTCHAR ordfeminine
ENCODING 170
SWIDTH 227 0
DWIDTH 3 0
BBX 3 3 0 2
BITMAP
3930
6740
8240
ENDCHAR
STARTCHAR guillemotleft
ENCODING 171
SWIDTH 652 0
DWIDTH 8 0
BBX 7 7 0 1
BITMAP
00005070
001A5A50
02B5A400
3A2B1000
2B589100
007A6B70
00023020
ENDCHAR
STARTCHAR logicalnot
ENCODING 172
SWIDTH 539 0
DWIDTH 6 0
BBX 6 4 0 1
BITMAP
178999
000008
000009
000003
ENDCHAR
STARTCHAR uni00AD
ENCODING 173
SWIDTH 399 0
DWIDTH 5 0
BBX 5 2 0 2
BITMAP
016A50
685100
ENDCHAR
STARTCHAR registered
ENCODING 174
SWIDTH 382 0
DWIDTH 5 0
BBX 6 8 0 0
BITMAP
01BD50
0710A2
3A8777
86783A
94C439
9535B4
9103A0
3DB800
ENDCHAR
STARTCHAR macron
ENCODING 175
SWIDTH 399 0
DWIDTH 5 0
BBX 5 1 0 8
BITMAP
689940
ENDCHAR
STARTCHAR degree
ENCODING 176
SWIDTH 201 0
DWIDTH 2 0
BBX 3 3 0 4
BITMAP
3600
8620
2400
ENDCHAR
STARTCHAR plusminus
ENCODING 177
SWIDTH 466 0
DWIDTH 6 0
BBX 5 7 0 0
BITMAP
005000
008000
008530
67D400
10A000
26B950
110000
ENDCHAR
STARTCHAR twosuperior
ENCODING 178
SWIDTH 318 0
DWIDTH 4 0
BBX 4 4 0 2
BITMAP
3710
2320
0600
1852
ENDCHAR
STARTCHAR threesuperior
ENCODING 179
SWIDTH 280 0
DWIDTH 3 0
BBX 4 5 0 2
BITMAP
3620
2510
3751
0050
0520
ENDCHAR
STARTCHAR acute
ENCODING 180
SWIDTH 155 0
DWIDTH 2 0
BBX 2 2 0 7
BITMAP
15
82
ENDCHAR
STARTCHAR mu
ENCODING 181
SWIDTH 387 0
DWIDTH 5 0
BBX 5 9 0 -2
BITMAP
400300
900A00
910C00
A20D00
A35F00
A8BB10
851000
700000
300000
ENDCHAR
STARTCHAR paragraph
ENCODING 182
SWIDTH 447 0
DWIDTH 5 0
BBX 5 8 0 0
BITMAP
059A50
7FFB80
AFC980
130A80
000A90
000A90
000980
000760
ENDCHAR
STARTCHAR periodcentered
ENCODING 183
SWIDTH 128 0
DWIDTH 2 0
BBX 2 2 0 2
BITMAP
41
30
ENDCHAR
STARTCHAR cedilla
ENCODING 184
SWIDTH 322 0
DWIDTH 4 0
BBX 4 5 0 -4
BITMAP
1200
3700
1BA1
01A6
1961
ENDCHAR
STARTCHAR onesuperior
ENCODING 185
SWIDTH 112 0
DWIDTH 1 0
BBX 1 5 0 2
BITMAP
10
60
70
80
70
ENDCHAR
STARTCHAR ordmasculine
ENCODING 186
SWIDTH 212 0
DWIDTH 3 0
BBX 3 4 0 2
BITMAP
1300
7440
8250
8710
ENDCHAR
STARTCHAR guillemotright
ENCODING 187
SWIDTH 625 0
DWIDTH 8 0
BBX 7 7 0 1
BITMAP
483B4000
04B78920
000592A0
00064650
00979700
1B5B5000
32120000
ENDCHAR
STARTCHAR onequarter
ENCODING 188
SWIDTH 678 0
DWIDTH 8 0
BBX 8 10 0 -1
BITMAP
00030000
00270000
40620210
70800C30
71708830
85363652
78595951
08000630
44000620
60000000
ENDCHAR
STARTCHAR onehalf
ENCODING 189
SWIDTH 693 0
DWIDTH 8 0
BBX 8 10 0 -1
BITMAP
00021000
00081000
50080000
51260000
51778500
51940700
43703400
05208031
08029620
07000000
ENDCHAR
STARTCHAR threequarters
ENCODING 190
SWIDTH 868 0
DWIDTH 10 0
BBX 9 10 0 -1
BITMAP
0010003000
3784009100
107003D300
098629C300
02016F4300
00186D8820
0091C54300
0000803300
0001703300
0004200000
ENDCHAR
STARTCHAR questiondown
ENCODING 191
SWIDTH 541 0
DWIDTH 7 0
BBX 6 10 1 0
BITMAP
005100
000000
000000
002000
047A00
005700
068000
560000
A00041
988960
ENDCHAR
STARTCHAR Agrave
ENCODING 192
SWIDTH 390 0
DWIDTH 5 0
BBX 6 11 0 0
BITMAP
062000
027000
092000
0B8000
0A8000
0A4400
291A46
383E42
5C5820
630360
510070
ENDCHAR
STARTCHAR Aacute
ENCODING 193
SWIDTH 390 0
DWIDTH 5 0
BBX 6 11 0 0
BITMAP
052000
190000
0B1000
0D6000
198000
377200
463854
655D42
7A4A00
910530
600160
ENDCHAR
STARTCHAR Acircumflex
ENCODING 194
SWIDTH 390 0
DWIDTH 5 0
BBX 7 13 -1 0
BITMAP
00100000
02C30000
08182000
35017000
00B10000
00D60000
01980000
03772000
04638540
0655D420
07A4A000
09105300
06001600
ENDCHAR
STARTCHAR Atilde
ENCODING 195
SWIDTH 390 0
DWIDTH 5 0
BBX 7 13 -1 0
BITMAP
05812200
194AB200
00042000
00000000
00B10000
00D60000
01980000
03772000
04638540
0655D420
07A4A000
09105300
06001600
ENDCHAR
STARTCHAR Adieresis
ENCODING 196
SWIDTH 390 0
DWIDTH 5 0
BBX 6 11 0 0
BITMAP
358000
000000
0B1000
0D6000
198000
377200
463854
655D42
7A4A00
910530
600160
ENDCHAR
STARTCHAR Aring
ENCODING 197
SWIDTH 390 0
DWIDTH 5 0
BBX 6 11 0 0
BITMAP
484000
B1A000
4E3000
0D6000
198000
377200
463854
655D42
7A4A00
910530
600160
ENDCHAR
STARTCHAR AE
ENCODING 198
SWIDTH 708 0
DWIDTH 9 0
BBX 9 9 0 0
BITMAP
0B15038300
0D69B81000
1987300000
3777305100
463C882000
655F800000
7A4B702920
9105878000
6003A30000
ENDCHAR
STARTCHAR Ccedilla
ENCODING 199
SWIDTH 487 0
DWIDTH 6 0
BBX 6 13 0 -4
BITMAP
007910
055220
090000
270000
630000
800013
900083
900570
3A9500
036000
01D700
000960
019A20
ENDCHAR
STARTCHAR Egrave
ENCODING 200
SWIDTH 474 0
DWIDTH 6 0
BBX 6 11 0 0
BITMAP
053000
018000
412740
7B9200
550000
450330
388600
2B1000
290193
295810
2B4000
ENDCHAR
STARTCHAR Eacute
ENCODING 201
SWIDTH 474 0
DWIDTH 6 0
BBX 6 11 0 0
BITMAP
002500
009100
412740
7B9200
550000
450330
388600
2B1000
290193
295810
2B4000
ENDCHAR
STARTCHAR Ecircumflex
ENCODING 202
SWIDTH 474 0
DWIDTH 6 0
BBX 6 13 0 0
BITMAP
001000
00B600
063640
080070
412740
7B9200
550000
450330
388600
2B1000
290193
295810
2B4000
ENDCHAR
STARTCHAR Edieresis
ENCODING 203
SWIDTH 474 0
DWIDTH 6 0
BBX 6 11 0 0
BITMAP
053800
000000
412740
7B9200
550000
450330
388600
2B1000
290193
295810
2B4000
ENDCHAR
STARTCHAR Igrave
ENCODING 204
SWIDTH 153 0
DWIDTH 2 0
BBX 2 11 0 0
BITMAP
70
45
44
45
36
36
27
27
27
17
16
ENDCHAR
STARTCHAR Iacute
ENCODING 205
SWIDTH 153 0
DWIDTH 2 0
BBX 2 12 0 0
BITMAP
06
64
00
44
45
36
36
27
27
27
17
16
ENDCHAR
STARTCHAR Icircumflex
ENCODING 206
SWIDTH 153 0
DWIDTH 2 0
BBX 5 13 -1 0
BITMAP
010000
098000
363700
800620
044000
045000
036000
036000
027000
027000
027000
017000
016000
ENDCHAR
STARTCHAR Idieresis
ENCODING 207
SWIDTH 153 0
DWIDTH 2 0
BBX 4 11 -1 0
BITMAP
1762
0000
0440
0450
0360
0360
0270
0270
0270
0170
0160
ENDCHAR
STARTCHAR Eth
ENCODING 208
SWIDTH 554 0
DWIDTH 7 0
BBX 7 9 0 0
BITMAP
07430000
6E558800
0A000440
09000530
09000900
08317300
5D978000
065A0000
01900000
ENDCHAR
STARTCHAR Ntilde
ENCODING 209
SWIDTH 541 0
DWIDTH 7 0
BBX 6 12 0 0
BITMAP
076040
6498A0
000510
000037
620019
8C0009
789009
547509
36092A
18019B
09002D
080005
ENDCHAR
STARTCHAR Ograve
ENCODING 210
SWIDTH 382 0
DWIDTH 5 0
BBX 5 11 0 0
BITMAP
005300
001700
000000
05CA00
0A0640
550460
910460
900640
900A10
913800
3D9000
ENDCHAR
STARTCHAR Oacute
ENCODING 211
SWIDTH 382 0
DWIDTH 5 0
BBX 5 11 0 0
BITMAP
007000
055000
000000
05CA00
0A0640
550460
910460
900640
900A10
913800
3D9000
ENDCHAR
STARTCHAR Ocircumflex
ENCODING 212
SWIDTH 382 0
DWIDTH 5 0
BBX 5 12 0 0
BITMAP
001000
089000
272800
710430
05CA00
0A0640
550460
910460
900640
900A10
913800
3D9000
ENDCHAR
STARTCHAR Otilde
ENCODING 213
SWIDTH 382 0
DWIDTH 5 0
BBX 5 11 0 0
BITMAP
076030
5588B0
001500
05CA00
0A0640
550460
910460
900640
900A10
913800
3D9000
ENDCHAR
STARTCHAR Odieresis
ENCODING 214
SWIDTH 382 0
DWIDTH 5 0
BBX 5 10 0 0
BITMAP
026710
000000
05CA00
0A0640
550460
910460
900640
900A10
913800
3D9000
ENDCHAR
STARTCHAR multiply
ENCODING 215
SWIDTH 454 0
DWIDTH 5 0
BBX 4 5 1 1
BITMAP
5031
7590
2E10
9380
1040
ENDCHAR
STARTCHAR Oslash
ENCODING 216
SWIDTH 382 0
DWIDTH 5 0
BBX 5 10 0 -1
BITMAP
000300
05CD00
0A3B40
557560
918460
926640
962A10
993800
4E9000
430000
ENDCHAR
STARTCHAR Ugrave
ENCODING 217
SWIDTH 450 0
DWIDTH 5 0
BBX 6 12 0 -2
BITMAP
017000
008000
100030
9200C0
9200E0
8202E0
8205D0
8209A0
631880
1A9171
000062
000020
ENDCHAR
STARTCHAR Uacute
ENCODING 218
SWIDTH 450 0
DWIDTH 5 0
BBX 6 11 0 -2
BITMAP
001500
108230
9200C0
9200E0
8202E0
8205D0
8209A0
631880
1A9171
000062
000020
ENDCHAR
STARTCHAR Ucircumflex
ENCODING 219
SWIDTH 450 0
DWIDTH 5 0
BBX 6 14 0 -2
BITMAP
001000
03B300
080910
350170
100030
9200C0
9200E0
8202E0
8205D0
8209A0
631880
1A9171
000062
000020
ENDCHAR
STARTCHAR Udieresis
ENCODING 220
SWIDTH 450 0
DWIDTH 5 0
BBX 6 11 0 -2
BITMAP
044800
100030
9200C0
9200E0
8202E0
8205D0
8209A0
631880
1A9171
000062
000020
ENDCHAR
STARTCHAR Yacute
ENCODING 221
SWIDTH 483 0
DWIDTH 6 0
BBX 6 12 0 0
BITMAP
000700
004700
000002
000027
500062
660090
0A3280
01BA30
001D00
003800
007300
008000
ENDCHAR
STARTCHAR Thorn
ENCODING 222
SWIDTH 398 0
DWIDTH 5 0
BBX 5 10 0 0
BITMAP
430000
720000
74AB20
8B1370
930370
910920
A39300
A81000
910000
610000
ENDCHAR
STARTCHAR germandbls
ENCODING 223
SWIDTH 537 0
DWIDTH 6 0
BBX 7 9 0 0
BITMAP
00695000
9A428000
74091000
45997A10
2E910700
0C005400
08058000
09390000
06200000
ENDCHAR
STARTCHAR agrave
ENCODING 224
SWIDTH 366 0
DWIDTH 4 0
BBX 5 9 0 0
BITMAP
061000
026000
005400
06AB00
1B2B00
758B00
A2A900
9A2810
950510
ENDCHAR
STARTCHAR aacute
ENCODING 225
SWIDTH 366 0
DWIDTH 4 0
BBX 5 9 0 0
BITMAP
006100
028000
005400
06AB00
1B2B00
758B00
A2A900
9A2810
950510
ENDCHAR
STARTCHAR acircumflex
ENCODING 226
SWIDTH 366 0
DWIDTH 4 0
BBX 5 12 0 0
BITMAP
010000
088000
363700
800520
000000
005400
06AB00
1B2B00
758B00
A2A900
9A2810
950510
ENDCHAR
STARTCHAR atilde
ENCODING 227
SWIDTH 366 0
DWIDTH 4 0
BBX 5 10 0 0
BITMAP
184030
82B880
001400
005400
06AB00
1B2B00
758B00
A2A900
9A2810
950510
ENDCHAR
STARTCHAR adieresis
ENCODING 228
SWIDTH 366 0
DWIDTH 4 0
BBX 5 9 0 0
BITMAP
084400
000000
005400
06AB00
1B2B00
758B00
A2A900
9A2810
950510
ENDCHAR
STARTCHAR aring
ENCODING 229
SWIDTH 366 0
DWIDTH 4 0
BBX 5 9 0 0
BITMAP
002000
0A7900
098A00
06AB00
1B2B00
758B00
A2A900
9A2810
950510
ENDCHAR
STARTCHAR ae
ENCODING 230
SWIDTH 705 0
DWIDTH 8 0
BBX 9 7 0 0
BITMAP
0054297000
06ABB2A300
1B2EC94000
758F800310
A2AA301B00
9A28529200
9505871000
ENDCHAR
STARTCHAR ccedilla
ENCODING 231
SWIDTH 390 0
DWIDTH 5 0
BBX 5 11 0 -4
BITMAP
0AA000
468000
820000
900000
800430
710910
2B9400
091000
06C400
003E00
069400
ENDCHAR
STARTCHAR egrave
ENCODING 232
SWIDTH 461 0
DWIDTH 6 0
BBX 6 9 0 0
BITMAP
007000
007100
004200
087B20
1A6910
9C4000
A400A2
530760
1A9400
ENDCHAR
STARTCHAR eacute
ENCODING 233
SWIDTH 461 0
DWIDTH 6 0
BBX 6 9 0 0
BITMAP
001600
007300
004200
087B20
1A6910
9C4000
A400A2
530760
1A9400
ENDCHAR
STARTCHAR ecircumflex
ENCODING 234
SWIDTH 461 0
DWIDTH 6 0
BBX 6 12 0 0
BITMAP
001000
02C400
081820
260070
000000
004200
087B20
1A6910
9C4000
A400A2
530760
1A9400
ENDCHAR
STARTCHAR edieresis
ENCODING 235
SWIDTH 461 0
DWIDTH 6 0
BBX 6 9 0 0
BITMAP
044800
000000
004200
087B20
1A6910
9C4000
A400A2
530760
1A9400
ENDCHAR
STARTCHAR igrave
ENCODING 236
SWIDTH 132 0
DWIDTH 2 0
BBX 3 10 -1 0
BITMAP
1600
0910
0000
0610
0910
0910
0910
0810
0810
0710
ENDCHAR
STARTCHAR iacute
ENCODING 237
SWIDTH 132 0
DWIDTH 2 0
BBX 2 10 0 0
BITMAP
39
40
00
61
91
91
91
81
81
71
ENDCHAR
STARTCHAR icircumflex
ENCODING 238
SWIDTH 132 0
DWIDTH 2 0
BBX 5 12 -2 0
BITMAP
001000
01B400
081820
260070
000000
006100
009100
009100
009100
008100
008100
007100
ENDCHAR
STARTCHAR idieresis
ENCODING 239
SWIDTH 132 0
DWIDTH 2 0
BBX 3 9 -1 0
BITMAP
3580
0000
0610
0910
0910
0910
0810
0810
0710
ENDCHAR
STARTCHAR eth
ENCODING 240
SWIDTH 481 0
DWIDTH 6 0
BBX 6 9 0 -1
BITMAP
003000
008300
015B64
036940
078370
295A80
170A40
08A800
001000
ENDCHAR
STARTCHAR ntilde
ENCODING 241
SWIDTH 483 0
DWIDTH 6 0
BBX 6 10 0 0
BITMAP
058122
194AB2
000420
702C80
91A380
83A073
795064
6E1055
5C0045
390023
ENDCHAR
STARTCHAR ograve
ENCODING 242
SWIDTH 266 0
DWIDTH 3 0
BBX 3 9 0 0
BITMAP
2500
0800
1810
6770
8080
9090
A0A0
9190
8A10
ENDCHAR
STARTCHAR oacute
ENCODING 243
SWIDTH 266 0
DWIDTH 3 0
BBX 3 9 0 0
BITMAP
0250
0920
1810
6770
8080
9090
A0A0
9190
8A10
ENDCHAR
STARTCHAR ocircumflex
ENCODING 244
SWIDTH 266 0
DWIDTH 3 0
BBX 5 12 -1 0
BITMAP
001000
03B200
090910
440160
000000
018100
067700
080800
090900
0A0A00
091900
08A100
ENDCHAR
STARTCHAR otilde
ENCODING 245
SWIDTH 266 0
DWIDTH 3 0
BBX 6 10 -1 0
BITMAP
067031
4668B0
000410
018100
067700
080800
090900
0A0A00
091900
08A100
ENDCHAR
STARTCHAR odieresis
ENCODING 246
SWIDTH 266 0
DWIDTH 3 0
BBX 3 9 0 0
BITMAP
5380
0000
1810
6770
8080
9090
A0A0
9190
8A10
ENDCHAR
STARTCHAR divide
ENCODING 247
SWIDTH 345 0
DWIDTH 4 0
BBX 4 4 0 1
BITMAP
0320
5897
0000
0230
ENDCHAR
STARTCHAR oslash
ENCODING 248
SWIDTH 266 0
DWIDTH 3 0
BBX 4 8 0 -1
BITMAP
1881
67B0
83D0
98A0
A8A0
B590
AA10
7000
ENDCHAR
STARTCHAR ugrave
ENCODING 249
SWIDTH 387 0
DWIDTH 5 0
BBX 5 10 0 -1
BITMAP
052000
017000
000000
700700
900A00
810A00
821D00
638D00
1C9820
010110
ENDCHAR
STARTCHAR uacute
ENCODING 250
SWIDTH 387 0
DWIDTH 5 0
BBX 5 10 0 -1
BITMAP
005200
019000
000000
700700
900A00
810A00
821D00
638D00
1C9820
010110
ENDCHAR
STARTCHAR ucircumflex
ENCODING 251
SWIDTH 387 0
DWIDTH 5 0
BBX 5 13 0 -1
BITMAP
001000
079000
182800
710440
000000
000000
700700
900A00
810A00
821D00
638D00
1C9820
010110
ENDCHAR
STARTCHAR udieresis
ENCODING 252
SWIDTH 387 0
DWIDTH 5 0
BBX 5 10 0 -1
BITMAP
082600
000000
000000
700700
900A00
810A00
821D00
638D00
1C9820
010110
ENDCHAR
STARTCHAR yacute
ENCODING 253
SWIDTH 363 0
DWIDTH 4 0
BBX 5 14 0 -5
BITMAP
006100
028000
000100
400720
750810
0B1910
039A10
009E00
001D00
000900
000900
000900
000900
000400
ENDCHAR
STARTCHAR thorn
ENCODING 254
SWIDTH 439 0
DWIDTH 5 0
BBX 5 9 0 -1
BITMAP
701310
9674A0
950190
801910
76B200
691000
710000
800000
200000
ENDCHAR
STARTCHAR ydieresis
ENCODING 255
SWIDTH 363 0
DWIDTH 4 0
BBX 5 14 0 -5
BITMAP
084400
000000
000100
400720
750810
0B1910
039A10
009E00
001D00
000900
000900
000900
000900
000400
ENDCHAR
STARTCHAR Amacron
ENCODING 256
SWIDTH 390 0
DWIDTH 5 0
BBX 6 11 0 0
BITMAP
789930
000000
0B1000
0D6000
198000
377200
463854
655D42
7A4A00
910530
600160
ENDCHAR
STARTCHAR amacron
ENCODING 257
SWIDTH 366 0
DWIDTH 4 0
BBX 5 9 0 0
BITMAP
789930
000000
005400
06AB00
1B2B00
758B00
A2A900
9A2810
950510
ENDCHAR
STARTCHAR Abreve
ENCODING 258
SWIDTH 390 0
DWIDTH 5 0
BBX 6 12 0 0
BITMAP
333600
08A100
000000
0B1000
0D6000
198000
377200
463854
655D42
7A4A00
910530
600160
ENDCHAR
STARTCHAR abreve
ENCODING 259
SWIDTH 366 0
DWIDTH 4 0
BBX 5 9 0 0
BITMAP
061800
06B200
005400
06AB00
1B2B00
758B00
A2A900
9A2810
950510
ENDCHAR
STARTCHAR Aogonek
ENCODING 260
SWIDTH 390 0
DWIDTH 5 0
BBX 6 12 0 -3
BITMAP
0B1000
0D6000
198000
377200
463854
655D42
7A4A00
910530
600170
000920
000901
0009B7
ENDCHAR
STARTCHAR aogonek
ENCODING 261
SWIDTH 366 0
DWIDTH 4 0
BBX 6 10 0 -3
BITMAP
005400
06AB00
1B2B00
758B00
A2A900
9A2810
950A10
004600
005662
000650
ENDCHAR
STARTCHAR Cacute
ENCODING 262
SWIDTH 487 0
DWIDTH 6 0
BBX 6 11 0 0
BITMAP
001600
007300
007910
055220
090000
270000
630000
800013
900083
900570
3A9500
ENDCHAR
STARTCHAR cacute
ENCODING 263
SWIDTH 390 0
DWIDTH 5 0
BBX 5 10 0 0
BITMAP
007000
046000
000000
0AA000
468000
820000
900000
800430
710910
2A8400
ENDCHAR
STARTCHAR Ccircumflex
ENCODING 264
SWIDTH 487 0
DWIDTH 6 0
BBX 6 13 0 0
BITMAP
001000
01B500
072730
170070
007910
055220
090000
270000
630000
800013
900083
900570
3A9500
ENDCHAR
STARTCHAR ccircumflex
ENCODING 265
SWIDTH 390 0
DWIDTH 5 0
BBX 5 12 0 0
BITMAP
001000
079000
182800
710440
000000
0AA000
468000
820000
900000
800430
710910
2A8400
ENDCHAR
STARTCHAR Cdotaccent
ENCODING 266
SWIDTH 487 0
DWIDTH 6 0
BBX 6 11 0 0
BITMAP
002100
004100
007910
055220
090000
270000
630000
800013
900083
900570
3A9500
ENDCHAR
STARTCHAR cdotaccent
ENCODING 267
SWIDTH 390 0
DWIDTH 5 0
BBX 5 8 0 0
BITMAP
051000
0AA000
568000
810000
900000
800530
810A10
2A9400
ENDCHAR
STARTCHAR Ccaron
ENCODING 268
SWIDTH 487 0
DWIDTH 6 0
BBX 6 12 0 0
BITMAP
050040
054640
006200
007910
055220
090000
270000
630000
800013
900083
900570
3A9500
ENDCHAR
STARTCHAR ccaron
ENCODING 269
SWIDTH 390 0
DWIDTH 5 0
BBX 5 10 0 0
BITMAP
410220
183700
036000
0AA000
468000
820000
900000
800430
710910
2A8400
ENDCHAR
STARTCHAR Dcaron
ENCODING 270
SWIDTH 554 0
DWIDTH 7 0
BBX 7 12 0 0
BITMAP
03201300
00827100
00260000
07430000
6E558800
0A000440
09000530
09000900
08007300
07058000
065A0000
01900000
ENDCHAR
STARTCHAR Emacron
ENCODING 274
SWIDTH 474 0
DWIDTH 6 0
BBX 6 10 0 0
BITMAP
489960
412740
7B9200
550000
450330
388600
2B1000
290193
295810
2B4000
ENDCHAR
STARTCHAR emacron
ENCODING 275
SWIDTH 461 0
DWIDTH 6 0
BBX 6 9 0 0
BITMAP
288990
000000
004200
087B20
1A6910
9C4000
A400A2
530760
1A9400
ENDCHAR
STARTCHAR Ebreve
ENCODING 276
SWIDTH 474 0
DWIDTH 6 0
BBX 6 11 0 0
BITMAP
042540
01A800
412740
7B9200
550000
450330
388600
2B1000
290193
295810
2B4000
ENDCHAR
STARTCHAR ebreve
ENCODING 277
SWIDTH 461 0
DWIDTH 6 0
BBX 6 9 0 0
BITMAP
042540
01A800
004200
087B20
1A6910
9C4000
A400A2
530760
1A9400
ENDCHAR
STARTCHAR Edotaccent
ENCODING 278
SWIDTH 474 0
DWIDTH 6 0
BBX 6 10 0 0
BITMAP
003000
416740
7B9200
550000
450330
388600
2B1000
290193
295810
2B4000
ENDCHAR
STARTCHAR edotaccent
ENCODING 279
SWIDTH 461 0
DWIDTH 6 0
BBX 6 8 0 0
BITMAP
002100
008300
087B20
1A6910
9C4000
A400A2
530760
1A9400
ENDCHAR
STARTCHAR Eogonek
ENCODING 280
SWIDTH 474 0
DWIDTH 6 0
BBX 6 11 0 -2
BITMAP
412740
7B9200
550000
450330
388600
2B1000
290183
295A10
2BB300
005AB2
000110
ENDCHAR
STARTCHAR eogonek
ENCODING 281
SWIDTH 461 0
DWIDTH 6 0
BBX 6 10 0 -3
BITMAP
004200
087B20
1A6910
9C4000
A400A2
530760
1AB400
045000
057730
005400
ENDCHAR
STARTCHAR Ecaron
ENCODING 282
SWIDTH 474 0
DWIDTH 6 0
BBX 6 11 0 0
BITMAP
230030
082810
429740
7B9200
550000
450330
388600
2B1000
290193
295810
2B4000
ENDCHAR
STARTCHAR ecaron
ENCODING 283
SWIDTH 461 0
DWIDTH 6 0
BBX 6 10 0 0
BITMAP
140040
072720
007100
004200
087B20
1A6910
9C4000
A400A2
530760
1A9400
ENDCHAR
STARTCHAR Gcircumflex
ENCODING 284
SWIDTH 591 0
DWIDTH 7 0
BBX 7 14 0 -2
BITMAP
00010000
005B1000
00919100
05302600
00079000
00830000
05500000
09017A80
54001C30
90006F00
91069A00
4BB60A00
00000A10
00000200
ENDCHAR
STARTCHAR gcircumflex
ENCODING 285
SWIDTH 437 0
DWIDTH 5 0
BBX 5 17 0 -5
BITMAP
001000
03B200
090910
440160
000000
004820
047A70
191B80
637690
91A2B0
AB31C0
2300C0
0000C0
000290
000550
000A00
07B400
ENDCHAR
STARTCHAR Gbreve
ENCODING 286
SWIDTH 591 0
DWIDTH 7 0
BBX 7 12 0 -2
BITMAP
00525400
001A8000
00079000
00830000
05500000
09017A80
54001C30
90006F00
91069A00
4BB60A00
00000A10
00000200
ENDCHAR
STARTCHAR gbreve
ENCODING 287
SWIDTH 437 0
DWIDTH 5 0
BBX 5 15 0 -5
BITMAP
051720
02A700
000000
004820
047A70
191B80
637690
91A2B0
AB31C0
2300C0
0000C0
000290
000550
000A00
07B400
ENDCHAR
STARTCHAR Gdotaccent
ENCODING 288
SWIDTH 591 0
DWIDTH 7 0
BBX 7 12 0 -2
BITMAP
00031000
00040000
0005A100
00650000
02700000
08105AA0
17001960
63003E30
7304B920
2AB70830
00000740
00000110
ENDCHAR
STARTCHAR gdotaccent
ENCODING 289
SWIDTH 437 0
DWIDTH 5 0
BBX 5 14 0 -5
BITMAP
000300
001400
004820
047A70
191B80
637690
91A2B0
AB31C0
2300C0
0000C0
000290
000550
000A00
07B400
ENDCHAR
STARTCHAR Gcommaaccent
ENCODING 290
SWIDTH 591 0
DWIDTH 7 0
BBX 7 12 0 -4
BITMAP
00079000
00830000
05500000
09017A80
54001C30
90006F00
91069A00
4BB60A00
00000A10
00090200
000A0000
00060000
ENDCHAR
STARTCHAR Hcircumflex
ENCODING 292
SWIDTH 424 0
DWIDTH 5 0
BBX 5 13 0 0
BITMAP
001000
079000
181900
710340
000000
800810
900620
900640
810B50
789470
770180
620090
630080
ENDCHAR
STARTCHAR hcircumflex
ENCODING 293
SWIDTH 466 0
DWIDTH 6 0
BBX 6 12 0 0
BITMAP
000100
002C30
008182
735017
910000
910000
913BA1
92D473
978074
9C1064
980064
710055
ENDCHAR
STARTCHAR Hbar
ENCODING 294
SWIDTH 424 0
DWIDTH 5 0
BBX 5 8 0 0
BITMAP
800810
900730
A89B60
810B50
899470
770180
620090
630080
ENDCHAR
STARTCHAR hbar
ENCODING 295
SWIDTH 466 0
DWIDTH 6 0
BBX 7 9 -1 0
BITMAP
07000000
09000000
1A674000
4B45CA10
092D4730
09780740
09C10640
09800640
07100550
ENDCHAR
STARTCHAR Itilde
ENCODING 296
SWIDTH 153 0
DWIDTH 2 0
BBX 6 12 -2 0
BITMAP
057121
2859C1
000410
004400
004500
003600
003600
002700
002700
002700
001700
001600
ENDCHAR
STARTCHAR itilde
ENCODING 297
SWIDTH 132 0
DWIDTH 2 0
BBX 5 10 -2 0
BITMAP
054020
5796C0
101710
006100
009100
009100
009100
008100
008100
007100
ENDCHAR
STARTCHAR imacron
ENCODING 299
SWIDTH 132 0
DWIDTH 2 0
BBX 5 9 -2 0
BITMAP
288990
000000
006100
009100
009100
009100
008100
008100
007100
ENDCHAR
STARTCHAR Ibreve
ENCODING 300
SWIDTH 153 0
DWIDTH 2 0
BBX 4 12 -1 0
BITMAP
3335
0991
0000
0440
0450
0360
0360
0270
0270
0270
0170
0160
ENDCHAR
STARTCHAR ibreve
ENCODING 301
SWIDTH 132 0
DWIDTH 2 0
BBX 4 10 -1 0
BITMAP
2012
3AB2
0210
0610
0910
0910
0910
0810
0810
0710
ENDCHAR
STARTCHAR Iogonek
ENCODING 302
SWIDTH 153 0
DWIDTH 2 0
BBX 3 12 0 -3
BITMAP
4400
4500
3600
3600
2700
2700
2700
2700
4700
A000
9680
1510
ENDCHAR
STARTCHAR iogonek
ENCODING 303
SWIDTH 132 0
DWIDTH 2 0
BBX 4 12 -1 -3
BITMAP
0500
0000
0610
0910
0910
0910
0810
0810
0810
1A00
4612
09A2
ENDCHAR
STARTCHAR Idotaccent
ENCODING 304
SWIDTH 153 0
DWIDTH 2 0
BBX 2 11 0 0
BITMAP
22
32
62
63
54
45
45
45
45
35
25
ENDCHAR
STARTCHAR dotlessi
ENCODING 305
SWIDTH 132 0
DWIDTH 2 0
BBX 2 7 0 0
BITMAP
61
91
91
91
81
81
71
ENDCHAR
STARTCHAR Jcircumflex
ENCODING 308
SWIDTH 371 0
DWIDTH 4 0
BBX 5 14 0 -1
BITMAP
001000
00B600
063640
180070
001300
002700
001900
000A00
000A00
000900
000900
300810
620800
067500
ENDCHAR
STARTCHAR jcircumflex
ENCODING 309
SWIDTH 112 0
DWIDTH 1 0
BBX 5 16 -2 -4
BITMAP
001000
03B300
090910
450170
000000
001000
009000
009000
009000
009100
008200
006300
006400
006400
608100
489000
ENDCHAR
STARTCHAR Kcommaaccent
ENCODING 310
SWIDTH 524 0
DWIDTH 6 0
BBX 7 12 0 -4
BITMAP
91004000
63092000
44560000
37900000
2E200000
0E433310
0B555510
07000000
00000000
00360000
00470000
00430000
ENDCHAR
STARTCHAR kcommaaccent
ENCODING 311
SWIDTH 428 0
DWIDTH 5 0
BBX 5 14 0 -4
BITMAP
100000
640000
650000
7402A0
730B40
836900
86C100
9C1000
9A8300
902780
200000
009000
00A000
006000
ENDCHAR
STARTCHAR Lacute
ENCODING 313
SWIDTH 537 0
DWIDTH 6 0
BBX 7 9 0 0
BITMAP
00051000
51290000
93000000
83000000
84000000
74000000
75001830
75288200
6C920000
ENDCHAR
STARTCHAR lacute
ENCODING 314
SWIDTH 137 0
DWIDTH 2 0
BBX 2 14 0 0
BITMAP
25
91
00
10
80
80
70
61
52
53
53
54
64
43
ENDCHAR
STARTCHAR Lcommaaccent
ENCODING 315
SWIDTH 537 0
DWIDTH 6 0
BBX 7 12 0 -4
BITMAP
51000000
93000000
83000000
84000000
74000000
75001830
75288200
6C920000
00000000
00270000
00380000
00340000
ENDCHAR
STARTCHAR lcommaaccent
ENCODING 316
SWIDTH 137 0
DWIDTH 2 0
BBX 2 15 0 -4
BITMAP
10
80
80
70
61
52
53
53
54
64
43
00
72
82
60
ENDCHAR
STARTCHAR Lcaron
ENCODING 317
SWIDTH 537 0
DWIDTH 6 0
BBX 7 11 0 0
BITMAP
23003000
08281000
01700000
51000000
93000000
83000000
84000000
74000000
75001830
75288200
6C920000
ENDCHAR
STARTCHAR Ldot
ENCODING 319
SWIDTH 537 0
DWIDTH 6 0
BBX 7 8 0 0
BITMAP
51000000
93000000
83000000
84000000
74140000
75131830
75288200
6C920000
ENDCHAR
STARTCHAR ldot
ENCODING 320
SWIDTH 267 0
DWIDTH 3 0
BBX 3 11 0 0
BITMAP
1000
8000
8000
7000
6100
5200
5300
5440
5430
6400
4300
ENDCHAR
STARTCHAR Lslash
ENCODING 321
SWIDTH 537 0
DWIDTH 6 0
BBX 8 8 -1 0
BITMAP
05100000
09300000
08300000
08400000
079B9000
3B700183
07528820
06C92000
ENDCHAR
STARTCHAR lslash
ENCODING 322
SWIDTH 137 0
DWIDTH 2 0
BBX 5 11 -2 0
BITMAP
001000
008000
008000
007000
006100
005200
005300
006BA0
29A500
005400
004300
ENDCHAR
STARTCHAR Nacute
ENCODING 323
SWIDTH 541 0
DWIDTH 7 0
BBX 6 10 0 0
BITMAP
003400
009137
620019
8C0009
789009
547509
36092A
18019B
09002D
080005
ENDCHAR
STARTCHAR nacute
ENCODING 324
SWIDTH 483 0
DWIDTH 6 0
BBX 6 9 0 0
BITMAP
001500
008200
702C80
91A380
83A073
795064
6E1055
5C0045
390023
ENDCHAR
STARTCHAR Ncommaaccent
ENCODING 325
SWIDTH 541 0
DWIDTH 7 0
BBX 6 13 0 -4
BITMAP
000037
620019
8C0009
789009
547509
36092A
18019B
09002D
080005
000000
002700
002800
002400
ENDCHAR
STARTCHAR ncommaaccent
ENCODING 326
SWIDTH 483 0
DWIDTH 6 0
BBX 6 11 0 -4
BITMAP
702C80
91A380
83A073
795064
6E1055
5C0045
390023
000000
006300
008300
006000
ENDCHAR
STARTCHAR Ncaron
ENCODING 327
SWIDTH 541 0
DWIDTH 7 0
BBX 6 11 0 0
BITMAP
050030
036550
005337
620019
8C0009
789009
547509
36092A
18019B
09002D
080005
ENDCHAR
STARTCHAR ncaron
ENCODING 328
SWIDTH 483 0
DWIDTH 6 0
BBX 6 10 0 0
BITMAP
040040
053730
007200
702C80
91A380
83A073
795064
6E1055
5C0045
390023
ENDCHAR
STARTCHAR napostrophe
ENCODING 329
SWIDTH 483 0
DWIDTH 6 0
BBX 6 11 0 0
BITMAP
063000
073000
060000
000000
702C80
91A380
83A073
795064
6E1055
5C0045
390023
ENDCHAR
STARTCHAR Omacron
ENCODING 332
SWIDTH 382 0
DWIDTH 5 0
BBX 5 10 0 0
BITMAP
188990
000000
05CA00
0A0640
550460
910460
900640
900A10
913800
3D9000
ENDCHAR
STARTCHAR omacron
ENCODING 333
SWIDTH 266 0
DWIDTH 3 0
BBX 5 9 -1 0
BITMAP
489970
000000
018100
067700
080800
090900
0A0A00
091900
08A100
ENDCHAR
STARTCHAR Obreve
ENCODING 334
SWIDTH 382 0
DWIDTH 5 0
BBX 5 10 0 0
BITMAP
061800
05B300
05CA00
0A0640
550460
910460
900640
900A10
913800
3D9000
ENDCHAR
STARTCHAR obreve
ENCODING 335
SWIDTH 266 0
DWIDTH 3 0
BBX 4 9 0 0
BITMAP
5172
2A70
1810
6770
8080
9090
A0A0
9190
8A10
ENDCHAR
STARTCHAR Ohungarumlaut
ENCODING 336
SWIDTH 382 0
DWIDTH 5 0
BBX 5 11 0 0
BITMAP
000200
009880
002400
05CA00
0A0640
550460
910460
900640
900A10
913800
3D9000
ENDCHAR
STARTCHAR ohungarumlaut
ENCODING 337
SWIDTH 266 0
DWIDTH 3 0
BBX 3 10 0 0
BITMAP
0300
4AB0
1220
1810
6770
8080
9090
A0A0
9190
8A10
ENDCHAR
STARTCHAR OE
ENCODING 338
SWIDTH 732 0
DWIDTH 9 0
BBX 9 9 0 0
BITMAP
0002104500
05CDAB5000
0A06800000
5504601300
9104868100
9006D30000
900AA00640
9139A29400
3D91D71000
ENDCHAR
STARTCHAR oe
ENCODING 339
SWIDTH 628 0
DWIDTH 8 0
BBX 8 7 0 0
BITMAP
18104600
67759770
808C6910
909D4002
A0B80085
91980580
8A179500
ENDCHAR
STARTCHAR Racute
ENCODING 340
SWIDTH 503 0
DWIDTH 6 0
BBX 6 12 0 0
BITMAP
000520
001900
420210
899798
860055
821840
888100
8A0000
87B500
8006B5
800004
600000
ENDCHAR
STARTCHAR racute
ENCODING 341
SWIDTH 396 0
DWIDTH 5 0
BBX 5 9 0 0
BITMAP
004300
00A000
000100
80BA30
867000
5A3000
3D1000
1F0000
0B0000
ENDCHAR
STARTCHAR Rcommaaccent
ENCODING 342
SWIDTH 503 0
DWIDTH 6 0
BBX 6 14 0 -4
BITMAP
420210
899798
860055
821840
888100
8A0000
87B500
8006B5
800004
600000
000000
005400
006500
005100
ENDCHAR
STARTCHAR rcommaaccent
ENCODING 343
SWIDTH 396 0
DWIDTH 5 0
BBX 5 11 0 -4
BITMAP
000100
80BA30
867000
5A3000
3D1000
1F0000
0B0000
000000
018000
00A000
006000
ENDCHAR
STARTCHAR Rcaron
ENCODING 344
SWIDTH 503 0
DWIDTH 6 0
BBX 6 13 0 0
BITMAP
040031
027460
004400
420210
899798
860055
821840
888100
8A0000
87B500
8006B5
800004
600000
ENDCHAR
STARTCHAR rcaron
ENCODING 345
SWIDTH 396 0
DWIDTH 5 0
BBX 5 10 0 0
BITMAP
410220
183700
035000
000100
80BA30
867000
5A3000
3D1000
1F0000
0B0000
ENDCHAR
STARTCHAR Sacute
ENCODING 346
SWIDTH 541 0
DWIDTH 7 0
BBX 7 11 0 0
BITMAP
00061000
00280000
00289000
05702000
47000000
90000000
91000000
17777300
00001B20
00159500
04840000
ENDCHAR
STARTCHAR sacute
ENCODING 347
SWIDTH 366 0
DWIDTH 4 0
BBX 5 10 0 -1
BITMAP
006100
028000
000000
068500
550000
902400
6A8A30
002A00
05B200
020000
ENDCHAR
STARTCHAR Scircumflex
ENCODING 348
SWIDTH 541 0
DWIDTH 7 0
BBX 7 13 0 0
BITMAP
00010000
005B1000
00919000
06202600
00289000
05702000
47000000
90000000
91000000
17777300
00001B20
00159500
04840000
ENDCHAR
STARTCHAR scircumflex
ENCODING 349
SWIDTH 366 0
DWIDTH 4 0
BBX 5 11 0 -1
BITMAP
001000
079000
182800
710440
068500
550000
902400
6A8A30
002A00
05B200
020000
ENDCHAR
STARTCHAR Scedilla
ENCODING 350
SWIDTH 541 0
DWIDTH 7 0
BBX 7 13 0 -4
BITMAP
00289000
05702000
47000000
90000000
91000000
17777300
00001B20
00159500
04843000
00028000
0000AA10
00001980
00008710
ENDCHAR
STARTCHAR scedilla
ENCODING 351
SWIDTH 366 0
DWIDTH 4 0
BBX 5 10 0 -4
BITMAP
068500
550000
902400
6A8A30
002A00
05B200
065000
01C800
000A50
02A810
ENDCHAR
STARTCHAR Scaron
ENCODING 352
SWIDTH 541 0
DWIDTH 7 0
BBX 7 11 0 0
BITMAP
04003100
02746000
006C9000
05702000
47000000
90000000
91000000
17777300
00001B20
00159500
04840000
ENDCHAR
STARTCHAR scaron
ENCODING 353
SWIDTH 366 0
DWIDTH 4 0
BBX 5 10 0 -1
BITMAP
400310
274600
044000
068500
550000
902400
6A8A30
002A00
05B200
020000
ENDCHAR
STARTCHAR Tcommaaccent
ENCODING 354
SWIDTH 595 0
DWIDTH 7 0
BBX 9 13 0 -4
BITMAP
0002434610
699BB65200
1002800000
0000800000
0000900000
0000A00000
0000B00000
0000910000
0000720000
0000000000
0000360000
0000380000
0000340000
ENDCHAR
STARTCHAR tcommaaccent
ENCODING 355
SWIDTH 268 0
DWIDTH 3 0
BBX 5 14 -1 -4
BITMAP
001000
036000
045000
048820
3DA300
175000
046000
036000
037000
028000
001000
009000
00A000
006000
ENDCHAR
STARTCHAR Tcaron
ENCODING 356
SWIDTH 595 0
DWIDTH 7 0
BBX 9 12 0 0
BITMAP
0022013000
0008281000
0001700000
0002434610
699BB65200
1002800000
0000800000
0000900000
0000A00000
0000B00000
0000910000
0000720000
ENDCHAR
STARTCHAR Tbar
ENCODING 358
SWIDTH 595 0
DWIDTH 7 0
BBX 9 9 0 0
BITMAP
0002434610
699BB65200
1002800000
0078DA2000
0000900000
0000A00000
0000B00000
0000910000
0000720000
ENDCHAR
STARTCHAR Utilde
ENCODING 360
SWIDTH 450 0
DWIDTH 5 0
BBX 6 13 0 -2
BITMAP
067030
4578B0
000410
100030
9200C0
9200E0
8202E0
8205D0
8209A0
631880
1A9171
000062
000020
ENDCHAR
STARTCHAR utilde
ENCODING 361
SWIDTH 387 0
DWIDTH 5 0
BBX 5 10 0 -1
BITMAP
382120
A2BB40
003300
700700
900A00
810A00
821D00
638D00
1C9820
010110
ENDCHAR
STARTCHAR Umacron
ENCODING 362
SWIDTH 450 0
DWIDTH 5 0
BBX 6 11 0 -2
BITMAP
389980
100030
9200C0
9200E0
8202E0
8205D0
8209A0
631880
1A9171
000062
000020
ENDCHAR
STARTCHAR umacron
ENCODING 363
SWIDTH 387 0
DWIDTH 5 0
BBX 5 10 0 -1
BITMAP
689940
000000
000000
700700
900A00
810A00
821D00
638D00
1C9820
010110
ENDCHAR
STARTCHAR Ubreve
ENCODING 364
SWIDTH 450 0
DWIDTH 5 0
BBX 6 11 0 -2
BITMAP
051630
11A830
9200C0
9200E0
8202E0
8205D0
8209A0
631880
1A9171
000062
000020
ENDCHAR
STARTCHAR ubreve
ENCODING 365
SWIDTH 387 0
DWIDTH 5 0
BBX 5 10 0 -1
BITMAP
060900
04B400
000000
700700
900A00
810A00
821D00
638D00
1C9820
010110
ENDCHAR
STARTCHAR Uring
ENCODING 366
SWIDTH 450 0
DWIDTH 5 0
BBX 6 13 0 -2
BITMAP
001000
088B00
077900
100030
9200C0
9200E0
8202E0
8205D0
8209A0
631880
1A9171
000062
000020
ENDCHAR
STARTCHAR uring
ENCODING 367
SWIDTH 387 0
DWIDTH 5 0
BBX 5 10 0 -1
BITMAP
001000
0A8800
0A7700
700700
900A00
810A00
821D00
638D00
1C9820
010110
ENDCHAR
STARTCHAR Uhungarumlaut
ENCODING 368
SWIDTH 450 0
DWIDTH 5 0
BBX 6 13 0 -2
BITMAP
003000
04AB00
012200
100030
9200C0
9200E0
8202E0
8205D0
8209A0
631880
1A9171
000062
000020
ENDCHAR
STARTCHAR uhungarumlaut
ENCODING 369
SWIDTH 387 0
DWIDTH 5 0
BBX 5 10 0 -1
BITMAP
011000
0B9400
014000
700700
900A00
810A00
821D00
638D00
1C9820
010110
ENDCHAR
STARTCHAR Uogonek
ENCODING 370
SWIDTH 450 0
DWIDTH 5 0
BBX 7 12 0 -4
BITMAP
10003000
9200C000
9200E000
8202E000
8205D000
8209A000
63188000
1A917100
0001C200
00075000
00058920
00003200
ENDCHAR
STARTCHAR uogonek
ENCODING 371
SWIDTH 387 0
DWIDTH 5 0
BBX 6 9 0 -3
BITMAP
700700
900A00
810A00
821D00
638D00
1C9920
014810
007221
002AA1
ENDCHAR
STARTCHAR Wcircumflex
ENCODING 372
SWIDTH 878 0
DWIDTH 11 0
BBX 10 14 0 -1
BITMAP
0000010000
0000890000
0002728000
0008005300
0000000007
300005000A
94001E2019
2800577045
0B0080A081
0930808290
0574501990
01C9100960
00AA000110
0010000000
ENDCHAR
STARTCHAR wcircumflex
ENCODING 373
SWIDTH 566 0
DWIDTH 7 0
BBX 7 12 0 0
BITMAP
00010000
007A1000
01819000
07103400
00000000
00010000
815A0630
46794630
0A92A640
08D14C40
02F00A50
00A00120
ENDCHAR
STARTCHAR Ycircumflex
ENCODING 374
SWIDTH 483 0
DWIDTH 6 0
BBX 6 14 0 0
BITMAP
001000
00B600
062640
170080
000002
000027
500062
660090
0A3280
01BA30
001D00
003800
007300
008000
ENDCHAR
STARTCHAR ycircumflex
ENCODING 375
SWIDTH 363 0
DWIDTH 4 0
BBX 5 17 0 -5
BITMAP
010000
098000
363700
800520
000000
000100
400720
750810
0B1910
039A10
009E00
001D00
000900
000900
000900
000900
000400
ENDCHAR
STARTCHAR Ydieresis
ENCODING 376
SWIDTH 483 0
DWIDTH 6 0
BBX 6 10 0 0
BITMAP
000002
026727
500062
660090
0A3280
01BA30
001D00
003800
007300
008000
ENDCHAR
STARTCHAR Zacute
ENCODING 377
SWIDTH 670 0
DWIDTH 8 0
BBX 8 11 0 0
BITMAP
00025000
00092000
13332210
35556C80
00003B00
0001B100
000A3000
00860000
04900000
2A000000
9DCCBBB8
ENDCHAR
STARTCHAR zacute
ENCODING 378
SWIDTH 618 0
DWIDTH 7 0
BBX 8 9 0 0
BITMAP
00016000
00083000
00000000
015AA000
59467000
000B1000
00550000
00A01585
01EBA741
ENDCHAR
STARTCHAR Zdotaccent
ENCODING 379
SWIDTH 670 0
DWIDTH 8 0
BBX 8 10 0 0
BITMAP
00012000
13355210
35556C80
00003B00
0001B100
000A3000
00860000
04900000
2A000000
9DCCBBB8
ENDCHAR
STARTCHAR zdotaccent
ENCODING 380
SWIDTH 618 0
DWIDTH 7 0
BBX 8 8 0 0
BITMAP
00031000
00041000
015AA000
59467000
000B1000
00550000
00A01585
01EBA741
ENDCHAR
STARTCHAR Zcaron
ENCODING 381
SWIDTH 670 0
DWIDTH 8 0
BBX 8 12 0 0
BITMAP
00400310
00274600
00044000
13332210
35556C80
00003B00
0001B100
000A3000
00860000
04900000
2A000000
9DCCBBB8
ENDCHAR
STARTCHAR zcaron
ENCODING 382
SWIDTH 618 0
DWIDTH 7 0
BBX 8 9 0 0
BITMAP
04102200
01837000
00350000
015AA000
59467000
000B1000
00550000
00A01585
01EBA741
ENDCHAR
STARTCHAR florin
ENCODING 402
SWIDTH 345 0
DWIDTH 4 0
BBX 5 14 -1 -3
BITMAP
003910
009750
00B000
00B000
00A010
00BAA0
06B100
008000
009000
00A000
00B100
00A200
00A200
19C100
ENDCHAR
STARTCHAR AEacute
ENCODING 508
SWIDTH 708 0
DWIDTH 9 0
BBX 9 12 0 0
BITMAP
0005200000
0019000000
0000000000
0B15038300
0D69B81000
1987300000
3777305100
463C882000
655F800000
7A4B702920
9105878000
6003A30000
ENDCHAR
STARTCHAR aeacute
ENCODING 509
SWIDTH 705 0
DWIDTH 8 0
BBX 9 9 0 0
BITMAP
0000510000
0002900000
0054297000
06ABB2A300
1B2EC94000
758F800310
A2AA301B00
9A28529200
9505871000
ENDCHAR
STARTCHAR Oslashacute
ENCODING 510
SWIDTH 382 0
DWIDTH 5 0
BBX 5 12 0 -1
BITMAP
002500
009100
000300
05CD00
0A3B40
557560
918460
926640
962A10
993800
4E9000
430000
ENDCHAR
STARTCHAR oslashacute
ENCODING 511
SWIDTH 266 0
DWIDTH 3 0
BBX 4 10 0 -1
BITMAP
0250
0920
1881
67B0
83D0
98A0
A8A0
B590
AA10
7000
ENDCHAR
STARTCHAR Scommaaccent
ENCODING 536
SWIDTH 541 0
DWIDTH 7 0
BBX 7 13 0 -4
BITMAP
00289000
05702000
47000000
90000000
91000000
17777300
00001B20
00159500
04840000
00000000
00270000
00280000
00240000
ENDCHAR
STARTCHAR scommaaccent
ENCODING 537
SWIDTH 366 0
DWIDTH 4 0
BBX 5 10 0 -4
BITMAP
068500
550000
902400
6A8A30
002A00
05B200
020000
036000
038000
034000
ENDCHAR
STARTCHAR circumflex
ENCODING 710
SWIDTH 390 0
DWIDTH 5 0
BBX 5 4 0 8
BITMAP
001000
06A100
181900
710350
ENDCHAR
STARTCHAR caron
ENCODING 711
SWIDTH 390 0
DWIDTH 5 0
BBX 5 3 0 7
BITMAP
230030
082810
017000
ENDCHAR
STARTCHAR breve
ENCODING 728
SWIDTH 390 0
DWIDTH 5 0
BBX 4 2 0 7
BITMAP
1517
06A2
ENDCHAR
STARTCHAR dotaccent
ENCODING 729
SWIDTH 128 0
DWIDTH 2 0
BBX 1 2 0 6
BITMAP
30
40
ENDCHAR
STARTCHAR ring
ENCODING 730
SWIDTH 266 0
DWIDTH 3 0
BBX 3 3 0 6
BITMAP
0100
87B0
8790
ENDCHAR
STARTCHAR ogonek
ENCODING 731
SWIDTH 366 0
DWIDTH 4 0
BBX 3 4 1 -3
BITMAP
0100
7400
9010
7A90
ENDCHAR
STARTCHAR tilde
ENCODING 732
SWIDTH 458 0
DWIDTH 6 0
BBX 5 3 0 6
BITMAP
175040
7398A0
001400
ENDCHAR
STARTCHAR hungarumlaut
ENCODING 733
SWIDTH 239 0
DWIDTH 3 0
BBX 3 3 0 5
BITMAP
0300
8880
1400
ENDCHAR
STARTCHAR Wgrave
ENCODING 7808
SWIDTH 878 0
DWIDTH 11 0
BBX 10 13 0 -1
BITMAP
0000350000
0000080000
0000000000
0000000007
300005000A
94001E2019
2800577045
0B0080A081
0930808290
0574501990
01C9100960
00AA000110
0010000000
ENDCHAR
STARTCHAR wgrave
ENCODING 7809
SWIDTH 566 0
DWIDTH 7 0
BBX 7 9 0 0
BITMAP
00530000
00180000
00010000
815A0630
46794630
0A92A640
08D14C40
02F00A50
00A00120
ENDCHAR
STARTCHAR Wacute
ENCODING 7810
SWIDTH 878 0
DWIDTH 11 0
BBX 10 12 0 -1
BITMAP
0000150000
0000820000
0000000007
300005000A
94001E2019
2800577045
0B0080A081
0930808290
0574501990
01C9100960
00AA000110
0010000000
ENDCHAR
STARTCHAR wacute
ENCODING 7811
SWIDTH 566 0
DWIDTH 7 0
BBX 7 9 0 0
BITMAP
00043000
000A0000
00010000
815A0630
46794630
0A92A640
08D14C40
02F00A50
00A00120
ENDCHAR
STARTCHAR Wdieresis
ENCODING 7812
SWIDTH 878 0
DWIDTH 11 0
BBX 10 11 0 -1
BITMAP
0000826000
0000000007
300005000A
94001E2019
2800577045
0B0080A081
0930808290
0574501990
01C9100960
00AA000110
0010000000
ENDCHAR
STARTCHAR wdieresis
ENCODING 7813
SWIDTH 566 0
DWIDTH 7 0
BBX 7 9 0 0
BITMAP
00726000
00000000
00010000
815A0630
46794630
0A92A640
08D14C40
02F00A50
00A00120
ENDCHAR
STARTCHAR Ygrave
ENCODING 7922
SWIDTH 483 0
DWIDTH 6 0
BBX 6 12 0 0
BITMAP
007100
003500
000002
000027
500062
660090
0A3280
01BA30
001D00
003800
007300
008000
ENDCHAR
STARTCHAR ygrave
ENCODING 7923
SWIDTH 363 0
DWIDTH 4 0
BBX 5 14 0 -5
BITMAP
071000
026000
000100
400720
750810
0B1910
039A10
009E00
001D00
000900
000900
000900
000900
000400
ENDCHAR
STARTCHAR endash
ENCODING 8211
SWIDTH 399 0
DWIDTH 5 0
BBX 5 2 0 2
BITMAP
016A50
685100
ENDCHAR
STARTCHAR emdash
ENCODING 8212
SWIDTH 549 0
DWIDTH 7 0
BBX 6 2 0 2
BITMAP
001589
688520
ENDCHAR
STARTCHAR quoteleft
ENCODING 8216
SWIDTH 155 0
DWIDTH 2 0
BBX 2 4 0 4
BITMAP
40
83
63
42
ENDCHAR
STARTCHAR quoteright
ENCODING 8217
SWIDTH 155 0
DWIDTH 2 0
BBX 2 4 0 4
BITMAP
40
83
63
42
ENDCHAR
STARTCHAR quotesinglbase
ENCODING 8218
SWIDTH 155 0
DWIDTH 2 0
BBX 2 4 0 0
BITMAP
20
74
54
34
ENDCHAR
STARTCHAR quotedblleft
ENCODING 8220
SWIDTH 212 0
DWIDTH 3 0
BBX 3 4 0 6
BITMAP
4100
8520
8620
6310
ENDCHAR
STARTCHAR quotedblright
ENCODING 8221
SWIDTH 212 0
DWIDTH 3 0
BBX 3 4 0 6
BITMAP
4100
8520
8620
6310
ENDCHAR
STARTCHAR quotedblbase
ENCODING 8222
SWIDTH 212 0
DWIDTH 3 0
BBX 3 4 0 0
BITMAP
3100
8520
7620
5410
ENDCHAR
STARTCHAR dagger
ENCODING 8224
SWIDTH 268 0
DWIDTH 3 0
BBX 5 11 -1 -1
BITMAP
001000
036000
045000
048820
3DA300
175000
046000
036000
037000
028000
001000
ENDCHAR
STARTCHAR daggerdbl
ENCODING 8225
SWIDTH 326 0
DWIDTH 4 0
BBX 4 11 0 -1
BITMAP
0100
0A00
0900
0968
7E61
3C99
7D10
0A00
0900
0810
0100
ENDCHAR
STARTCHAR bullet
ENCODING 8226
SWIDTH 189 0
DWIDTH 2 0
BBX 2 3 0 2
BITMAP
14
7D
12
ENDCHAR
STARTCHAR ellipsis
ENCODING 8230
SWIDTH 387 0
DWIDTH 5 0
BBX 5 1 0 0
BITMAP
727620
ENDCHAR
STARTCHAR guilsinglleft
ENCODING 8249
SWIDTH 409 0
DWIDTH 5 0
BBX 5 7 0 1
BITMAP
000050
001A40
02B300
3A1000
2B5000
007A30
000230
ENDCHAR
STARTCHAR guilsinglright
ENCODING 8250
SWIDTH 450 0
DWIDTH 5 0
BBX 5 7 0 1
BITMAP
481000
04B600
000590
000640
009600
1B5000
320000
ENDCHAR
STARTCHAR fraction
ENCODING 8260
SWIDTH 306 0
DWIDTH 4 0
BBX 4 10 0 -1
BITMAP
0012
0071
0080
0170
0620
0800
1700
5300
8000
7000
ENDCHAR
STARTCHAR Euro
ENCODING 8364
SWIDTH 589 0
DWIDTH 7 0
BBX 7 10 0 -1
BITMAP
00049200
00280300
00810000
00911000
5BB71000
05666000
7B730020
06300580
01A9B700
00010000
ENDCHAR
STARTCHAR trademark
ENCODING 8482
SWIDTH 1278 0
DWIDTH 15 0
BBX 15 10 0 0
BITMAP
0000000100000100
0002434AC0000C00
699BB65687002D10
100280035A107720
0000800263708430
0000900180A27340
0000A001903D1260
0000B001B0040180
00009100C00000A0
00007200B00000A0
ENDCHAR
STARTCHAR minus
ENCODING 8722
SWIDTH 358 0
DWIDTH 4 0
BBX 4 1 0 3
BITMAP
3899
ENDCHAR
STARTCHAR commaaccent
ENCODING 63171
SWIDTH 450 0
DWIDTH 5 0
BBX 1 3 2 -4
BITMAP
90
A0
60
ENDCHAR
STARTCHAR fi
ENCODING 64257
SWIDTH 409 0
DWIDTH 5 0
BBX 5 11 0 0
BITMAP
039100
097500
0B0500
0B0000
0A0530
0BAE40
6C1640
090640
0A0540
0A1540
081540
ENDCHAR
STARTCHAR fl
ENCODING 64258
SWIDTH 416 0
DWIDTH 5 0
BBX 5 11 0 0
BITMAP
039100
097B10
0B0530
0B0440
0A0450
0BAC60
6C1260
090170
0A0170
0A1280
081280
ENDCHAR
STARTCHAR .notdef
ENCODING -1
SWIDTH 450 0
DWIDTH 5 0
BBX 1 1 0 0
BITMAP
00
ENDCHAR
STARTCHAR .null
ENCODING -1
SWIDTH 0 0
DWIDTH 0 0
BBX 1 1 0 0
BITMAP
00
ENDCHAR
STARTCHAR nonmarkingreturn
ENCODING -1
SWIDTH 450 0
DWIDTH 5 0
BBX 1 1 0 0
BITMAP
00
ENDCHAR
ENDFONT
